<mxfile host="Electron" agent="Mozilla/5.0 (X11; Linux x86_64) AppleWebKit/537.36 (KHTML, like Gecko) draw.io/27.0.5 Chrome/134.0.6998.205 Electron/35.3.0 Safari/537.36" version="27.0.5">
  <diagram name="Page-1" id="ib0KKrDDxVYF5MeXXiUM">
    <mxGraphModel dx="2066" dy="1203" grid="1" gridSize="10" guides="1" tooltips="1" connect="1" arrows="1" fold="1" page="1" pageScale="1" pageWidth="850" pageHeight="1100" background="#ffffff" math="0" shadow="1">
      <root>
        <mxCell id="0" />
        <mxCell id="1" parent="0" />
        <mxCell id="14" value="Specimen and collection" style="edgeStyle=orthogonalEdgeStyle;endArrow=block;html=1;" parent="1" edge="1">
          <mxGeometry relative="1" as="geometry">
            <mxPoint x="750" y="350" as="targetPoint" />
          </mxGeometry>
        </mxCell>
        <mxCell id="15" value="report delivery offline" style="edgeStyle=orthogonalEdgeStyle;endArrow=block;html=1;" parent="1" edge="1">
          <mxGeometry relative="1" as="geometry">
            <mxPoint x="700" y="380" as="sourcePoint" />
          </mxGeometry>
        </mxCell>
        <mxCell id="tWG6HDi8vkcV2uDQjxRs-15" value="Bionic Boarder App" style="rounded=0;whiteSpace=wrap;html=1;labelPosition=center;verticalLabelPosition=top;align=left;verticalAlign=bottom;fillColor=#eeeeee;strokeColor=#36393d;fontSize=16;fontColor=#000000;labelBackgroundColor=none;" parent="1" vertex="1">
          <mxGeometry x="530" y="270" width="760" height="480" as="geometry" />
        </mxCell>
        <mxCell id="tWG6HDi8vkcV2uDQjxRs-16" value="&lt;span style=&quot;font-size: 14px;&quot;&gt;Acquire 3D Acceleration&lt;/span&gt;&lt;div&gt;&lt;span style=&quot;font-size: 14px;&quot;&gt;Data of Smartphone&lt;/span&gt;&lt;/div&gt;" style="ellipse;whiteSpace=wrap;html=1;fillColor=#ffcc99;strokeColor=#36393d;fontColor=#7EA6E0;" parent="1" vertex="1">
          <mxGeometry x="970" y="320" width="200" height="80" as="geometry" />
        </mxCell>
        <mxCell id="tWG6HDi8vkcV2uDQjxRs-17" value="&lt;span style=&quot;font-size: 14px;&quot;&gt;Acquire Location Data from&amp;nbsp;&lt;/span&gt;&lt;div&gt;&lt;span style=&quot;font-size: 14px;&quot;&gt;Smartphone&lt;/span&gt;&lt;/div&gt;" style="ellipse;whiteSpace=wrap;html=1;fillColor=#ffcc99;strokeColor=#36393d;fontColor=#7EA6E0;" parent="1" vertex="1">
          <mxGeometry x="1020" y="470" width="200" height="80" as="geometry" />
        </mxCell>
        <mxCell id="-DimdZUtYeZPLM0FLft_-15" value="&lt;span style=&quot;font-size: 14px;&quot;&gt;Utilize the Longboard Riding Control Strategy&lt;/span&gt;" style="ellipse;whiteSpace=wrap;html=1;fillColor=#ffcc99;strokeColor=#36393d;fontColor=#7EA6E0;" vertex="1" parent="1">
          <mxGeometry x="580" y="340" width="200" height="80" as="geometry" />
        </mxCell>
        <mxCell id="rMrCo7qkllFQNwr9Kiji-22" style="rounded=0;orthogonalLoop=1;jettySize=auto;html=1;strokeColor=#000000;endArrow=none;startFill=0;shadow=0;jumpStyle=none;" parent="1" source="sfKcnbmMzuwdX9yF3wZo-21" target="-DimdZUtYeZPLM0FLft_-15" edge="1">
          <mxGeometry relative="1" as="geometry">
            <mxPoint x="330" y="794" as="sourcePoint" />
            <mxPoint x="510" y="640" as="targetPoint" />
          </mxGeometry>
        </mxCell>
        <mxCell id="-DimdZUtYeZPLM0FLft_-18" value="&lt;span style=&quot;font-size: 14px;&quot;&gt;Acquire 3D Acceleration and Attitude from Electric Longboard&lt;/span&gt;" style="ellipse;whiteSpace=wrap;html=1;fillColor=#ffcc99;strokeColor=#36393d;fontColor=#7EA6E0;" vertex="1" parent="1">
          <mxGeometry x="560" y="590" width="200" height="80" as="geometry" />
        </mxCell>
        <mxCell id="-DimdZUtYeZPLM0FLft_-19" value="&lt;span style=&quot;font-size: 14px;&quot;&gt;Acquire Motor State from Electric Longboard&lt;/span&gt;" style="ellipse;whiteSpace=wrap;html=1;fillColor=#ffcc99;strokeColor=#36393d;fontColor=#7EA6E0;" vertex="1" parent="1">
          <mxGeometry x="860" y="590" width="200" height="80" as="geometry" />
        </mxCell>
        <mxCell id="-DimdZUtYeZPLM0FLft_-21" style="rounded=0;orthogonalLoop=1;jettySize=auto;html=1;strokeColor=#000000;endArrow=none;startFill=0;shadow=0;jumpStyle=none;labelBackgroundColor=default;fontColor=#000000;" edge="1" parent="1" target="-DimdZUtYeZPLM0FLft_-32" source="tWG6HDi8vkcV2uDQjxRs-17">
          <mxGeometry relative="1" as="geometry">
            <mxPoint x="293.75" y="864" as="sourcePoint" />
            <mxPoint x="503.75" y="1115" as="targetPoint" />
          </mxGeometry>
        </mxCell>
        <mxCell id="-DimdZUtYeZPLM0FLft_-20" style="rounded=0;orthogonalLoop=1;jettySize=auto;html=1;strokeColor=#000000;endArrow=none;startFill=0;shadow=0;jumpStyle=none;exitX=1;exitY=0.5;exitDx=0;exitDy=0;" edge="1" parent="1" target="-DimdZUtYeZPLM0FLft_-31" source="tWG6HDi8vkcV2uDQjxRs-16">
          <mxGeometry relative="1" as="geometry">
            <mxPoint x="293.75" y="862" as="sourcePoint" />
            <mxPoint x="503.75" y="955" as="targetPoint" />
          </mxGeometry>
        </mxCell>
        <mxCell id="sfKcnbmMzuwdX9yF3wZo-21" value="&lt;span style=&quot;font-size: 11px;&quot;&gt;Longboard Rider&lt;/span&gt;" style="shape=umlActor;verticalLabelPosition=bottom;verticalAlign=top;html=1;outlineConnect=0;strokeColor=#666666;align=center;fontFamily=Helvetica;fontSize=12;fontColor=#333333;labelBackgroundColor=none;fillColor=#f5f5f5;horizontal=1;textShadow=0;" parent="1" vertex="1">
          <mxGeometry x="310" y="350" width="30" height="60" as="geometry" />
        </mxCell>
        <mxCell id="-DimdZUtYeZPLM0FLft_-31" value="&amp;lt;&amp;lt;actor&amp;gt;&amp;gt;&lt;div&gt;Smartphone System IMU&lt;/div&gt;" style="html=1;whiteSpace=wrap;fillColor=#76608a;fontColor=#ffffff;strokeColor=#432D57;" vertex="1" parent="1">
          <mxGeometry x="1370" y="302.5" width="120" height="70" as="geometry" />
        </mxCell>
        <mxCell id="-DimdZUtYeZPLM0FLft_-32" value="&amp;lt;&amp;lt;actor&amp;gt;&amp;gt;&lt;div&gt;Smartphone System GPS&lt;/div&gt;" style="html=1;whiteSpace=wrap;fillColor=#76608a;fontColor=#ffffff;strokeColor=#432D57;" vertex="1" parent="1">
          <mxGeometry x="1370" y="447.5" width="120" height="70" as="geometry" />
        </mxCell>
        <mxCell id="-DimdZUtYeZPLM0FLft_-33" value="&amp;lt;&amp;lt;actor&amp;gt;&amp;gt;&lt;div&gt;Electric Longboard System VESC&lt;/div&gt;" style="html=1;whiteSpace=wrap;fillColor=#76608a;fontColor=#ffffff;strokeColor=#432D57;" vertex="1" parent="1">
          <mxGeometry x="690" y="810" width="120" height="70" as="geometry" />
        </mxCell>
        <mxCell id="-DimdZUtYeZPLM0FLft_-34" value="&amp;lt;&amp;lt;actor&amp;gt;&amp;gt;&lt;div&gt;Electric Longboard System IMU&lt;/div&gt;" style="html=1;whiteSpace=wrap;fillColor=#76608a;fontColor=#ffffff;strokeColor=#432D57;" vertex="1" parent="1">
          <mxGeometry x="980" y="810" width="120" height="70" as="geometry" />
        </mxCell>
        <mxCell id="-DimdZUtYeZPLM0FLft_-35" style="rounded=0;orthogonalLoop=1;jettySize=auto;html=1;strokeColor=#000000;endArrow=none;startFill=0;shadow=0;jumpStyle=none;exitX=0.5;exitY=0;exitDx=0;exitDy=0;" edge="1" parent="1" source="-DimdZUtYeZPLM0FLft_-34" target="-DimdZUtYeZPLM0FLft_-19">
          <mxGeometry relative="1" as="geometry">
            <mxPoint x="1220" y="853.5" as="sourcePoint" />
            <mxPoint x="1420" y="836.5" as="targetPoint" />
          </mxGeometry>
        </mxCell>
        <mxCell id="-DimdZUtYeZPLM0FLft_-36" style="rounded=0;orthogonalLoop=1;jettySize=auto;html=1;strokeColor=#000000;endArrow=none;startFill=0;shadow=0;jumpStyle=none;exitX=0.5;exitY=1;exitDx=0;exitDy=0;entryX=0.5;entryY=0;entryDx=0;entryDy=0;" edge="1" parent="1" source="-DimdZUtYeZPLM0FLft_-18" target="-DimdZUtYeZPLM0FLft_-33">
          <mxGeometry relative="1" as="geometry">
            <mxPoint x="490" y="807" as="sourcePoint" />
            <mxPoint x="690" y="790" as="targetPoint" />
          </mxGeometry>
        </mxCell>
        <mxCell id="-DimdZUtYeZPLM0FLft_-39" value="&amp;lt;&amp;lt;include&amp;gt;&amp;gt;" style="html=1;verticalAlign=bottom;labelBackgroundColor=none;endArrow=open;endFill=0;dashed=1;rounded=0;exitX=1;exitY=0.5;exitDx=0;exitDy=0;strokeColor=#000000;fontColor=#000000;" edge="1" parent="1" source="-DimdZUtYeZPLM0FLft_-15" target="tWG6HDi8vkcV2uDQjxRs-16">
          <mxGeometry width="160" relative="1" as="geometry">
            <mxPoint x="680" y="447.5" as="sourcePoint" />
            <mxPoint x="840" y="447.5" as="targetPoint" />
          </mxGeometry>
        </mxCell>
        <mxCell id="-DimdZUtYeZPLM0FLft_-40" value="&amp;lt;&amp;lt;include&amp;gt;&amp;gt;" style="html=1;verticalAlign=bottom;labelBackgroundColor=none;endArrow=open;endFill=0;dashed=1;rounded=0;exitX=0.905;exitY=0.788;exitDx=0;exitDy=0;strokeColor=#000000;fontColor=#000000;exitPerimeter=0;entryX=0;entryY=0;entryDx=0;entryDy=0;" edge="1" parent="1" source="-DimdZUtYeZPLM0FLft_-15" target="tWG6HDi8vkcV2uDQjxRs-17">
          <mxGeometry width="160" relative="1" as="geometry">
            <mxPoint x="789" y="443" as="sourcePoint" />
            <mxPoint x="980" y="430" as="targetPoint" />
          </mxGeometry>
        </mxCell>
        <mxCell id="-DimdZUtYeZPLM0FLft_-41" value="&amp;lt;&amp;lt;include&amp;gt;&amp;gt;" style="html=1;verticalAlign=bottom;labelBackgroundColor=none;endArrow=open;endFill=0;dashed=1;rounded=0;exitX=0.725;exitY=0.925;exitDx=0;exitDy=0;strokeColor=#000000;fontColor=#000000;exitPerimeter=0;" edge="1" parent="1" source="-DimdZUtYeZPLM0FLft_-15" target="-DimdZUtYeZPLM0FLft_-19">
          <mxGeometry width="160" relative="1" as="geometry">
            <mxPoint x="659" y="530.5" as="sourcePoint" />
            <mxPoint x="840" y="510" as="targetPoint" />
          </mxGeometry>
        </mxCell>
        <mxCell id="-DimdZUtYeZPLM0FLft_-42" value="&amp;lt;&amp;lt;include&amp;gt;&amp;gt;" style="html=1;verticalAlign=bottom;labelBackgroundColor=none;endArrow=open;endFill=0;dashed=1;rounded=0;exitX=0.355;exitY=0.975;exitDx=0;exitDy=0;strokeColor=#000000;fontColor=#000000;exitPerimeter=0;entryX=0.5;entryY=0;entryDx=0;entryDy=0;" edge="1" parent="1" source="-DimdZUtYeZPLM0FLft_-15" target="-DimdZUtYeZPLM0FLft_-18">
          <mxGeometry width="160" relative="1" as="geometry">
            <mxPoint x="564.5" y="530.5" as="sourcePoint" />
            <mxPoint x="755.5" y="517.5" as="targetPoint" />
          </mxGeometry>
        </mxCell>
      </root>
    </mxGraphModel>
  </diagram>
</mxfile>
